<?xml version="1.0" encoding="UTF-8" standalone="no"?>
<!DOCTYPE svg PUBLIC "-//W3C//DTD SVG 20010904//EN"
              "http://www.w3.org/TR/2001/REC-SVG-20010904/DTD/svg10.dtd">

<svg xmlns="http://www.w3.org/2000/svg"
     width="67.7392mm" height="42.337mm"
     viewBox="0 0 320 200">
  <path id="Unnamed"
        fill="none" stroke="black" stroke-width="1"
        d="M 289.67,1.67
           C 289.67,1.67 293.67,22.33 293.67,22.33
             293.67,22.33 293.00,43.67 293.00,43.67
             293.00,43.67 287.00,65.00 287.00,65.00
             287.00,65.00 276.00,83.00 276.33,83.00
             276.67,83.00 262.67,96.33 262.67,96.33
             262.67,96.33 244.67,108.33 244.67,108.33
             244.67,108.33 222.67,119.67 223.33,119.67
             224.00,119.67 200.00,124.67 200.00,124.67
             200.00,124.67 179.33,134.00 179.33,134.00
             179.33,134.00 164.00,147.33 164.00,147.33
             164.00,147.33 146.33,158.00 146.33,158.00
             146.33,158.00 130.00,164.67 130.00,164.67
             130.00,164.67 105.67,172.00 105.67,172.00
             105.67,172.00 86.67,175.00 87.00,175.00
             87.33,175.00 63.67,171.00 63.67,171.00
             63.67,171.00 42.67,162.00 42.67,162.00
             42.67,162.00 28.67,138.33 28.67,138.33
             28.67,138.33 17.00,110.00 17.00,110.00
             17.00,110.00 11.67,62.00 11.67,62.00" />
</svg>
